# xmcd
#
# Track frame offsets:
#	150
#	14187
#	26518
#	39908
#	57051
#	70310
#	80322
#	94639
#	104837
#	117224
#	128994
#	138149
#	152031
#
# Disc length: 2163 seconds
#
# Revision: 1
# Processed by: cddbd v1.5.2PL0 Copyright (c) Steve Scherf et al.
# Submitted via: audiograbber 1.83.01
#
DISCID=a808710d
DTITLE=Johnny Paycheck - Forever Gold
DYEAR=2007
DGENRE=Country
TTITLE0=I'm The Only Hell (Mama Ever Raised)
TTITLE1=Take This Job and Shove It
TTITLE2=(Please Don't Take Her) She's All I Got
TTITLE3=Memory of a Memory
TTITLE4=Somebody Loves Me
TTITLE5=Lovin' You Beats All
TTITLE6=Friend, Lover, Wife
TTITLE7=A-11
TTITLE8=Georgia In A Jug
TTITLE9=Something About You I Love
TTITLE10=Mr LoveMaker
TTITLE11=Someone To Give My Love To
TTITLE12=Jukebox Charlie
EXTD=
EXTT0=
EXTT1=
EXTT2=
EXTT3=
EXTT4=
EXTT5=
EXTT6=
EXTT7=
EXTT8=
EXTT9=
EXTT10=
EXTT11=
EXTT12=
PLAYORDER=
